<?xml version="1.0" standalone="no"?>
<!DOCTYPE svg PUBLIC "-//W3C//DTD SVG 1.1//EN" "http://www.w3.org/Graphics/SVG/1.1/DTD/svg11.dtd" >
<svg xmlns="http://www.w3.org/2000/svg">
<metadata>Generated by IcoMoon</metadata>
<defs>
<font id="icomoon" horiz-adv-x="1024">
<font-face units-per-em="1024" ascent="960" descent="-64" />
<missing-glyph horiz-adv-x="1024" />
<glyph unicode="&#x20;" horiz-adv-x="512" d="" />
<glyph unicode="&#xe900;" d="M972 448c0-254.051-205.949-460-460-460s-460 205.949-460 460c0 254.051 205.949 460 460 460s460-205.949 460-460z" />
<glyph unicode="&#xe901;" d="M513 317.6c-17.2 0-34.2 3.4-50 10l-1.4 0.8c-30.8 13.2-55.8 38.4-68.6 69.2l-0.6 1.4c-6.4 15.6-9.6 32.2-9.6 49.2s3.2 33.6 9.6 49.2c13 31.8 38.2 57.2 69.2 70.6l1.4 0.6c31.2 13 67 13.2 98.2 0.8 0.6 0.4 1.6-0.6 2.6-1 30.8-12.8 55.6-37.4 69.4-68.6l0.6-1.4c6.8-16.4 10-33 10-50s-3.2-33.6-9.6-49.2l-0.6-1.8c-13.8-32-38.6-56.4-70.2-69.6l-2-0.8c-15.6-6.2-31.8-9.4-48.4-9.4zM468.6 341.4c27.6-11.4 59.2-11.6 86.8-0.6l1.4 0.6c28.2 11.8 50.2 33.4 62.2 61.2l0.6 1.6c5.8 14.2 8.6 29 8.6 44s-2.8 29.6-8.6 43.4l6 5-6.8-3c-12 27.4-34.4 49.6-61.8 61l-1.8 0.6c-27.4 10.8-58.6 10.8-86.2-0.4l-2.2-1c-27-11.8-49.2-34.2-60.6-61.8-6-14.4-8.8-29-8.8-44 0-14.6 2.6-28.8 8-42.2l0.2-0.2 0.8-2.2c11.2-27 33.4-49.6 60.8-61.6l1.4-0.4z" />
<glyph unicode="&#xe902;" d="M530.2 152.8h-36.6c-21.6 0-39.2 17.6-39.2 39.2v30.4c-21.6 5.6-42 14.2-61 25.8l-21.8-21.8c-14.8-14.8-40.6-14.8-55.4 0l-26 25.8c-7.4 7.4-11.4 17.2-11.4 27.8s4 20.4 11.4 27.8l22 22c-11.4 19-19.8 39.4-25.2 60.8h-31c-21.6 0-39.2 17.6-39.2 39.2v36.8c0 21.6 17.6 39.2 39.2 39.2h31.2c5.4 21.4 13.8 41.8 25.2 60.8l-22 22c-7.4 7.4-11.4 17.2-11.4 27.8 0 10.4 4 20.4 11.4 27.8l26 25.8c14.8 14.8 40.6 14.8 55.4 0l21.8-21.8c19 11.4 39.4 20 61 25.8v30c0 21.6 17.6 39.2 39.2 39.2h36.6c21.6 0 39.2-17.6 39.2-39.2v-29.8c21.8-5.4 42.6-14 62-25.4l21 21c14.8 14.8 40.6 14.8 55.2 0l26-25.8c7.4-7.4 11.4-17.2 11.4-27.8 0-10.4-4-20.4-11.4-27.8l-20.8-20.8c11.6-19.4 20.4-40.2 26-62h29c21.6 0 39.2-17.6 39.2-39.2v-36.8c0-21.6-17.6-39.2-39.2-39.2h-29c-5.6-21.8-14.2-42.6-26-62l20.8-20.8c7.4-7.4 11.4-17.2 11.4-27.8s-4-20.4-11.4-27.8l-26-25.8c-14.8-14.8-40.6-14.8-55.2 0l-21 21c-19.4-11.6-40.2-20-62-25.4v-29.8c-0.2-21.6-17.6-39.2-39.4-39.2zM390.4 276.8l7.6-5c21.2-14 44.8-24 70.2-29.6l8.8-2v-48.2c0-9.2 7.4-16.6 16.6-16.6h36.6c9.2 0 16.6 7.4 16.6 16.6v48l9 1.8c25.2 5.2 49.2 15 71 29.2l7.6 5 33.6-33.6c6.2-6.2 17.2-6.2 23.4 0l26 25.8c3.2 3.2 4.8 7.4 4.8 11.8s-1.8 8.6-4.8 11.8l-33.6 33.6 5 7.6c14.4 21.8 24.4 45.6 29.6 71l1.8 9h47.8c9.2 0 16.6 7.4 16.6 16.6v36.8c0 9.2-7.4 16.6-16.6 16.6h-47.2l-1.8 9c-5.4 25.4-15.4 49.2-29.6 71l-5 7.6 33.6 33.6c6.6 6.6 6.6 17.2 0 23.6l-26 25.8c-6.4 6.4-17.2 6.4-23.4 0l-34-33.6-7.6 5c-22 14.2-45.8 24-71 29.2l-9 1.8v48c0 9.2-7.4 16.6-16.6 16.6h-36.6c-9.2 0-16.6-7.4-16.6-16.6v-48.4l-8.8-2c-25.2-5.6-48.8-15.4-70.2-29.6l-7.6-5-34.6 34.6c-6.4 6.6-17.2 6.6-23.6 0l-26-25.8c-6.6-6.4-6.6-17 0-23.6l34.8-34.8-5-7.6c-14-21.4-23.6-44.8-28.8-69.8l-1.8-9h-49.6c-9.2 0-16.6-7.4-16.6-16.6v-36.8c0-9.2 7.4-16.6 16.6-16.6h49.2l1.8-9c5.2-25 15-48.4 28.8-69.8l5-7.6-34.8-34.8c-3.2-3.2-4.8-7.4-4.8-11.8s1.8-8.6 4.8-11.8l26-25.8c6.6-6.6 17.2-6.6 23.6 0l34.8 34.4zM513 313.8c-17.8 0-35.2 3.4-51.6 10.2l-1.6 0.8c-32 14.2-57 39.6-70.2 70.4v0l-0.8 2c-6.6 16.2-10 33.2-10 50.6 0 17.6 3.4 34.6 10 50.6l0.8 1.6c12.8 31 38.6 57.2 70.4 71l1 0.6h0.4c32 13.2 68.4 13.6 100.2 1 1.4-0.4 2.6-1 3.4-1.4 31.6-13.2 57-38.2 71-70.6l0.6-1.6c6.8-16.8 10.2-33.8 10.2-51.2s-3.4-34.4-10-50.6l-1-2.4c-14-32.2-39.6-57.4-72-70.8l-1.6-0.6c-15.4-6.4-32.2-9.6-49.2-9.6zM470 344.8c26.8-11 57.4-11.4 84-0.6l1.6 0.6c27 11.2 48.2 32 60 58.8 0.2 0.6 0.4 1.4 0.8 2 5.6 13.8 8.4 28 8.4 42.6s-2.8 28.6-8.2 42l-0.6 1.4c-11.8 27-33.6 48.6-60 59.6l-1.8 0.6c-26.4 10.6-56.6 10.4-83-0.2l-2.8-1.2c-25.8-11.2-47.4-33-58.4-59.6l-0.8-1.6c-5-12.4-7.8-26.4-7.8-41 0-13.8 2.4-27.2 7.4-40l0.4-0.4 1-3c11.6-26.8 32.8-48 58.8-59.4l1-0.6z" />
<glyph unicode="&#xe903;" d="M513 317.6c-17.2 0-34.2 3.4-50 10l-4.6 2v237l4.6 2c31.2 13 67 13.2 98.2 0.8l4.8-1.8v-238.6l-4.8-1.8c-15.4-6.4-31.6-9.6-48.2-9.6zM473.2 339.6c24.8-9 52.6-9.2 77.4-0.6v218c-24.8 8.6-52.6 8.4-77.4-0.6v-216.8z" />
<glyph unicode="&#xe904;" d="M631.8 394.2h-237.6l-2 4.6c-6.4 15.6-9.6 32.2-9.6 49.2s3.2 33.6 9.6 49.2l2 4.6h237.6l2-4.6c6.4-15.6 9.6-32 9.6-49.2 0-17-3.2-33.6-9.6-49.2l-2-4.6zM404.4 409.2h217.2c4.4 12.4 6.8 25.6 6.8 38.8 0 13.4-2.2 26.4-6.8 38.8h-217.2c-4.4-12.4-6.8-25.4-6.8-38.8 0-13.2 2.4-26.4 6.8-38.8z" />
<glyph unicode="&#xe905;" d="M466.2 326.2l-4.6 2c-31 13.4-56.2 39-68.8 70l-1.8 4.6 3.4 3.6 164.2 164.2 4.6-2c31.4-13 56.2-37.6 69.8-69l2-4.6-168.8-168.8zM408.4 399.4c11.2-23.8 30.6-43.6 54.4-55.2l154.2 154.2c-11.6 23.8-31.4 43.2-55.2 54.4l-153.4-153.4z" />
<glyph unicode="&#xe906;" d="M558.2 325.6l-5.4 5.8-161.4 161.2 1.2 5.4c12.8 31 37.8 56.6 68.8 70l4.6 2 168.8-168.8-2-4.6c-13.6-31.4-38.4-55.8-70-69l-4.6-2zM408.4 496.6l153.4-153.2c24.2 11.2 43.6 30.4 55.2 54.4l-154.2 154.2c-23.8-11.6-43.2-31.4-54.4-55.4z" />
<glyph unicode="&#xe907;" d="M972 448c0-254.051-205.949-460-460-460s-460 205.949-460 460c0 254.051 205.949 460 460 460s460-205.949 460-460z" />
<glyph unicode="&#xe908;" d="M220.8 190c-1.2 0-2.4 0.2-3.6 0.6-5.8 2-9 8.4-7 14.2 11.4 33 59.2 66.8 142.4 100.4 13.6 5.6 6.6 31 6.4 31.2l-4.2 14.4h31.6l1.6 52.6c-18.4 8.8-29.6 35.6-31.8 41.8l0.4 0.2c-0.2 0.6-0.4 1.4-0.8 2v0c-2.2 6.8-5 18-9.4 36.2-3.4 13.6-6.4 32.8 5 41.8 1.2 1 2.6 1.6 3.8 2.2-2.8 20.6-7 61.6-0.2 92.6 7.6 34.8 41.2 52.2 60.6 58.8-0.8 2.4-2 5.2-3 7.8l-4.4 10.8 11 4c44.4 15.8 85.4-18.8 98.8-30.2 1-0.8 2-1.6 2.6-2.2 11.8-4.8 38.6-23.4 51.6-55.6 11-27 9-71.4 7.2-93.2 4.6-1.2 7.8-3.8 9.6-5.6 14-14.6 5-48 0-62.8-3.4-24.8-11.4-42-24-51.4-3.6-2.8-7.4-4.4-10.6-5.4l-1.6-47.4h21.8l0.4-10.8c1.2-33.8 31-42.6 32.2-42.8 132.2-47.2 137.4-84.4 135.8-94.8-1-6.2-6.6-10.4-12.8-9.4-5.8 0.8-9.8 6-9.6 11.6-0.4 2.4-8.4 31.4-120.2 71.2-14 3.6-41 19.6-47 52.6h-24.2l3.2 93 12.6-2.2c0.2 0 0.2 0 0.4 0 5.4 0 17 8.2 21 39.8l0.6 2.2c5.6 16.6 8.2 36.2 5.6 40.8-0.2-0.2-1.2-0.2-2.8-0.6l-16.4-4.8 2.2 17c0 0.6 8 64.2-4.4 94.6-11 26.8-33.6 40.8-38.6 43-3.2 0.8-5.4 2.6-9.4 6-10.8 9-37.6 31.4-65.6 28.6 3.4-10.2 2.8-14 0.2-17.8l-3.4-5h-5.2c-4.4-1-45.8-12.2-52.8-44.6-8.2-38 2.4-96.2 2.4-96.8l4.2-22.8-17.8 9.4c0-3 0.4-8 2.4-16.4 6.6-27 8.4-34 9-35.6v0c5.4-14 16-29.8 22.8-30.2l11.2-0.4-2.8-94.4h-25c1.4-16.4-2.4-36-21.8-43.8-101.2-41-124.8-72.2-130-87.2-1-4.2-5.4-7.2-10.2-7.2z" />
<glyph unicode="&#xe909;" d="M641.6 409.6v68.4h-29.2c-6.2 0-11.2 5-11.2 11.2s5 11.2 11.2 11.2h51.6v-53.6c25.6 16.4 44.6 37.4 52.4 46.2 2 2.2 3.4 3.6 4 4.4l3.2 3h41.4c14.8 0 26.8 12 26.8 26.8v129.4c0 14.8-12 26.8-26.8 26.8h-256.6c-6.2 0-11.2 5-11.2 11.2s5 11.2 11.2 11.2h256.6c27.2 0 49.4-22.2 49.4-49.4v-129.4c0-27.2-22.2-49.4-49.4-49.4h-32c-10.4-11.6-37.6-42-75.4-60.4l-16-7.6z" />
<glyph unicode="&#xe90a;" d="M732.4 587.2h-100.2c-6.2 0-11.2 5-11.2 11.2s5 11.2 11.2 11.2h100.2c6.2 0 11.2-5 11.2-11.2s-5-11.2-11.2-11.2z" />
<glyph unicode="&#xe90b;" d="M705 540.8h-94.4c-6.2 0-11.2 5-11.2 11.2s5 11.2 11.2 11.2h94.4c6.2 0 11.2-5 11.2-11.2s-5-11.2-11.2-11.2z" />
<glyph unicode="&#xe90c;" d="M719.6 632.8h-121.6c-6.2 0-11.2 5-11.2 11.2s5 11.2 11.2 11.2h121.6c6.2 0 11.2-5 11.2-11.2s-5-11.2-11.2-11.2z" />
<glyph unicode="&#xe90d;" d="M972 448c0-254.051-205.949-460-460-460s-460 205.949-460 460c0 254.051 205.949 460 460 460s460-205.949 460-460z" />
<glyph unicode="&#xe90e;" d="M512 441c-38.2 0-69.2 31-69.2 69.2s31 69.2 69.2 69.2 69.2-31 69.2-69.2-31-69.2-69.2-69.2zM512 556.8c-25.8 0-46.6-21-46.6-46.6s21-46.6 46.6-46.6c25.8 0 46.6 21 46.6 46.6s-20.8 46.6-46.6 46.6z" />
<glyph unicode="&#xe90f;" d="M740 188h-185.4v176.2c0 11.4-4.4 22-12.6 30.2-8 8-18.8 12.6-30.2 12.6-23.4 0-42.6-19.2-42.6-42.6v-176.4h-185.2c-20.2 0-38.4 10.4-48.8 28-10.2 17.4-10.4 38.4-0.6 56.2l228 407c10.2 18.2 28.6 29 49.2 29 0 0 0 0 0 0 20.8 0 39.2-10.8 49.2-29l228-407c9.8-17.6 9.6-38.6-0.6-56.2s-28.2-28-48.4-28zM577 210.4h163c12.2 0 23.2 6.2 29.2 16.8s6.2 23.2 0.4 33.8l-228 407c-6.2 10.8-17.2 17.4-29.6 17.4s-23.6-6.6-29.6-17.4l-228-407c-6-10.6-5.8-23.2 0.4-33.8s17.2-16.8 29.4-16.8h162.8v153.8c0 36 29.2 65.2 65 65.2 17.4 0 33.8-6.8 46-19.2 12.4-12.4 19.2-28.8 19.2-46v-153.8z" />
<glyph unicode="&#xe910;" d="M972 448c0-254.051-205.949-460-460-460s-460 205.949-460 460c0 254.051 205.949 460 460 460s460-205.949 460-460z" />
<glyph unicode="&#xe911;" d="M680.2 514.6h-116.2c-6.2 0-11.2 5-11.2 11.2s5 11.2 11.2 11.2h116.2c6.2 0 11.2-5 11.2-11.2s-5-11.2-11.2-11.2z" />
<glyph unicode="&#xe912;" d="M676.2 449h-108.2c-6.2 0-11.2 5-11.2 11.2s5 11.2 11.2 11.2h108.2c6.2 0 11.2-5 11.2-11.2s-5-11.2-11.2-11.2z" />
<glyph unicode="&#xe913;" d="M676.2 390.6h-108.2c-6.2 0-11.2 5-11.2 11.2s5 11.2 11.2 11.2h108.2c6.2 0 11.2-5 11.2-11.2s-5-11.2-11.2-11.2z" />
<glyph unicode="&#xe914;" d="M676.2 326.6h-108.2c-6.2 0-11.2 5-11.2 11.2s5 11.2 11.2 11.2h108.2c6.2 0 11.2-5 11.2-11.2s-5-11.2-11.2-11.2z" />
<glyph unicode="&#xe915;" d="M449.4 408.4h-112.2c-6.2 0-11.2 5-11.2 11.2s5 11.2 11.2 11.2h112.2c6.2 0 11.2-5 11.2-11.2s-5-11.2-11.2-11.2z" />
<glyph unicode="&#xe916;" d="M445.6 345.2h-104.6c-6.2 0-11.2 5-11.2 11.2s5 11.2 11.2 11.2h104.6c6.2 0 11.2-5 11.2-11.2s-5-11.2-11.2-11.2z" />
<glyph unicode="&#xe917;" d="M445.6 273.6h-104.6c-6.2 0-11.2 5-11.2 11.2s5 11.2 11.2 11.2h104.6c6.2 0 11.2-5 11.2-11.2s-5-11.2-11.2-11.2z" />
<glyph unicode="&#xe918;" d="M557.4 178h-241c-21.2 0-38.6 18.2-38.6 40.6v459c0 22.2 17.2 40.4 38.6 40.4h276.2c6.2 0 11.2-5 11.2-11.2s-5-11.2-11.2-11.2h-276.2c-8.8 0-16-8-16-17.8v-459c0-9.8 7.4-18 16-18h241c6.2 0 11.2-5 11.2-11.2s-5-11.6-11.2-11.6z" />
<glyph unicode="&#xe919;" d="M734.8 232.2h-206.4c-21.4 0-38.8 18.2-38.8 40.6v318c0 22.4 17.4 40.4 38.8 40.4h206.4c6.2 0 11.2-5 11.2-11.2s-5-11.2-11.2-11.2h-206.4c-8.8 0-16.2-8.2-16.2-18v-318c0-9.8 7.4-18 16.2-18h206.4c6.2 0 11.2-5 11.2-11.2s-4.8-11.4-11.2-11.4z" />
<glyph unicode="&#xe91a;" d="M393.2 485.2c-36 0-65.4 29.4-65.4 65.4 0 36.2 29.4 65.4 65.4 65.4 36.2 0 65.4-29.4 65.4-65.4s-29.2-65.4-65.4-65.4zM393.2 593.8c-23.6 0-43-19.2-43-43 0-23.6 19.2-43 43-43s43 19.2 43 43c0 23.6-19.2 43-43 43z" />
<glyph unicode="&#xe91b;" d="M972 448c0-254.051-205.949-460-460-460s-460 205.949-460 460c0 254.051 205.949 460 460 460s460-205.949 460-460z" />
<glyph unicode="&#xe91c;" d="M268 247.2c-1.2 0-2.4 0.2-3.6 0.6-5.8 2-9 8.4-7 14.2 11.6 33.4 60.2 67.8 144.4 101.8 13.8 5.6 6.6 31.6 6.6 31.8l-4.4 14.4h32.2l1.6 53.8c-18.8 8.8-30 36-32.4 42.2l0.4 0.2c-0.2 0.6-0.4 1.4-0.8 2h-0.2l-0.2 1.6c-2.2 7-5 18-9.2 35.2-2.4 9.4-4.6 21.4-2 31l-7.2 42.4 12.6-32.6c0.4 0.4 1 1 1.6 1.4 1.2 1 2.6 1.8 4 2.4-3 21-7.2 62.6-0.2 94 7.8 35.4 42 53 61.4 59.6-1 2.6-2 5.6-3 8l-4.4 10.8 11 4c45.2 16 86.6-19.2 100.2-30.6 1-1 2-1.6 2.6-2.2 11.8-4.6 39-23.6 52.4-56.2 11.2-27.4 9.2-72.6 7.4-94.6 4.8-1.2 7.8-3.8 9.8-5.8 14.4-15 4.2-51.2 0-63.6-3.4-25.2-11.6-42.6-24.2-52-3.8-2.8-7.4-4.4-10.8-5.6l-1.6-48.4h22.2l0.4-10.8c1.2-34.4 31.6-43.2 32.8-43.6 134-47.8 139.2-85.6 137.6-96-1-6.2-6.6-10.4-12.8-9.4-5.8 0.8-9.8 6-9.6 11.6-0.4 2.4-8.4 31.8-122 72.4-14.2 3.8-41.6 19.8-47.6 53.4h-24.4l3.2 94 12.6-2.2c6.2-0.2 17.6 7.6 21.8 40.6l0.6 2.2c5.8 17.2 8.4 37 5.6 41.6-0.2-0.2-1.2-0.2-3-0.8l-16.4-4.8 2.2 17c0 0.6 8.2 65.2-4.4 96.2-11.2 27.2-34.2 41.6-39.2 43.8-3.2 0.6-5.4 2.6-9.4 6-11 9.2-38.2 32-67 29.2 3.6-11.2 2.8-14.6 0.4-18.2l-3.4-5-6.2-0.2c0.8 0-45.2-10.8-52.8-45.4-8.4-38.4 2.4-97.8 2.4-98.4l4.2-22.8-18 9.4c0-3 0.4-8.2 2.4-16.8 6.4-26 8.4-33.6 9-35.8l0.2-0.4c5.4-14.2 16.4-30.4 23.2-30.6l11.2-0.4-2.8-94.8h-25.4c1.4-16.6-2.4-36.6-22-44.6-102.6-41.6-126.8-73.4-132-88.6-1.6-4.6-6-7.6-10.6-7.6z" />
<glyph unicode="&#xe91d;" d="M591.8 186.4c-2.8 0-5.8 1-8 3.2l-128.8 128.8c-4.4 4.4-4.4 11.6 0 16s11.6 4.4 16 0l128.8-128.8c4.4-4.4 4.4-11.6 0-16-2.2-2-5-3.2-8-3.2z" />
<glyph unicode="&#xe91e;" d="M463 186.4c-2.8 0-5.8 1-8 3.2-4.4 4.4-4.4 11.6 0 16l128.8 128.8c4.4 4.4 11.6 4.4 16 0s4.4-11.6 0-16l-128.8-128.8c-2.2-2-5-3.2-8-3.2z" />
<glyph unicode="&#xe91f;" d="M972 448c0-254.051-205.949-460-460-460s-460 205.949-460 460c0 254.051 205.949 460 460 460s460-205.949 460-460z" />
<glyph unicode="&#xe920;" d="M877.8 305.6c-2 0-4.2 0.6-6 1.8-19.6 12.6-47.6 25.6-83.2 38.2-13 3.4-38.2 18.2-44 49h-22.6l3 88.4 12.6-2.2c0 0 0.2 0 0.2 0 4.6 0 15 7.4 18.8 36.4l0.6 2.2c5 14.6 7.4 31.8 5.4 36.8-0.4-0.2-1-0.2-2-0.6l-16.4-4.8 2.2 17c2.2 16.4 5.6 64.4-4 87.8-10.2 24.8-30.8 37.6-35.4 39.6-3 0.8-5.2 2.6-9 5.6-9.8 8.2-33.6 28.6-59.6 26.6 2.8-9.2 2.4-12.8-0.2-16.4l-3.4-5-6.2-0.2c1 0-40.8-10-47.4-40.8-7.6-35 2.2-89.4 2.2-89.8l4.2-22.8-16.8 8.8c0.2-2.8 0.6-7.2 2.2-13.8 6.2-25.2 7.8-31.6 8.4-33.2v0c5-12.8 14.8-27.4 20.6-27.6l11.2-0.4-2.6-89.4h-23.2c1.2-15.4-2.8-33.4-21-40.8-6.8-2.8-20.6-8.4-36.8-16-5.6-2.6-12.4-0.2-15 5.4s-0.4 12.4 5.4 15c16.6 8 31 13.8 38 16.6 11.6 4.8 5.2 27.8 5.2 28l-4.2 14.4h29.8l1.4 47.8c-17.2 8.6-27.4 33.4-29.6 39l0.4 0.2c-0.2 0.6-0.4 1.4-0.8 2v0c-2.2 6.6-4.8 17-8.8 33.6-3.2 13-6 31 5 39.8 1 0.8 2 1.4 3.2 2-2.6 19.4-6.4 57.2-0.2 86 7.2 32.8 37.8 49 56 55.2-0.8 2-1.6 4.2-2.4 6.4l-4.4 10.8 11 4c41.8 14.8 80.2-17.6 92.8-28.2 1-0.8 1.8-1.4 2.4-2 11.2-4.6 36.2-22 48.4-52 10.2-25 8.6-66 6.8-86.6 4.2-1.2 7-3.6 8.6-5.4 13.2-13.8 5-45.2 0.2-59.2-3.2-23.2-10.8-39.6-22.6-48.2-3.4-2.4-6.6-4-9.6-5l-1.4-42.8h20.4l0.4-10.8c1-30.8 28.4-38.8 29.6-39.2 38-13.6 67.6-27.2 88.8-40.8 5.2-3.4 6.8-10.4 3.4-15.6-2.6-3-6.2-4.8-10-4.8z" />
<glyph unicode="&#xe921;" d="M153.4 325.6c-1.2 0-2.4 0.2-3.6 0.6-5.8 2-9 8.4-7 14.2 8.6 25.2 44.4 50.6 106.4 75.8 7.2 3 3.2 19.2 3 19.4l-4.4 14.4h24.4l1 34c-13.6 7.8-21.4 26.8-23.2 31.4l0.4 0.2c-0.2 0.6-0.4 1.4-0.8 2h-0.2l-0.2 1.2c-1.8 5.6-3.8 13.6-6.6 25.2-1.6 7-3.4 15.8-1.6 23.2l-10.2 60.6 17.6-45.6c-2 16.4-4 43 0.6 63.8 7.4 33.6 44.4 45.8 54.8 47.8v0c1.6 0.4 8.4 3.2 13.6 5.6 24.2 8.6 43.8 3.2 59-16 10.6-4.8 29-19.4 38-41.8 8-19.8 7-50.6 5.8-67.6 2.8-1.2 4.8-2.8 6-4.2 11.2-11.8 4.6-37.4 0.8-49-2.6-19-9-32.2-18.8-39.4-2.2-1.6-4.6-2.8-6.6-3.8l-1-29.8h15.8l0.4-10.8c0.8-22.2 19.4-28.2 21.6-28.8 45.2-16 75.4-32.4 90.8-48.6 4.2-4.4 4.2-11.6-0.4-15.8-4.4-4.2-11.6-4.2-15.8 0.4-9 9.4-30.2 24.4-81.4 42.6-10.4 2.8-30.4 14.4-36 38.6h-18.4l2.6 75 12.6-2.2c2 0 9.4 4.8 12.2 26.8l0.6 2.2c3 9 5 20 4.6 25.4l-14.2-4.2 0.8 16.8c1.6 12.8 4.4 50.2-3 68.2-7.4 18.2-22.8 28.2-26.6 30-4 1-6.4 4-8 6.2-4.6 5.8-13 16.4-33.4 9.2-12.8-5.8-16.4-6.8-18.4-6.8-3.4-0.8-31.8-9-36.4-30.4-6-27.4 1.8-69.6 1.8-70l4.2-22.8-13.8 7.2c0.2-1.6 0.6-3.6 1.2-6.2 4.4-17.8 6-23.8 6.4-25.8v-0.2c4-10.4 11.2-20 14.2-20.2l10.2-1.2 0.4-10.4-1.8-64.2h-17.4c0.4-12.4-3.6-26.2-18.2-32-76-30.8-91-53.8-94-62.4-1.4-4.8-5.8-7.8-10.4-7.8z" />
<glyph unicode="&#xe922;" d="M524.2 176.8c-48 0-109.6 22.2-161.2 111.8-3.2 5.4-1.2 12.2 4.2 15.4s12.2 1.2 15.4-4.2c42-72.8 97-107.2 159-99.4 58.2 7.2 106.2 50.6 111.8 70.8 1.6 6 7.8 9.6 13.8 7.8 6-1.6 9.4-7.8 7.8-13.8-8.4-29.8-63.6-78.6-130.8-87-6.4-0.8-13.2-1.4-20-1.4z" />
<glyph unicode="&#xe923;" d="M357.8 180.2c-0.4 0-1 0-1.4 0-6.2 0.8-10.6 6.4-9.8 12.6 1.6 12 3.4 35 5.4 57.4 1.8 22.6 3.8 45.8 5.4 58.4l1.6 12.6 134.6-34.6c6-1.6 9.6-7.6 8.2-13.6-1.6-6-7.8-9.6-13.6-8.2l-109.8 28.2c-1.2-12.4-2.6-28.8-4-44.6-1.8-22.6-3.8-45.8-5.4-58.4-0.8-5.6-5.6-9.8-11.2-9.8z" />
<glyph unicode="&#xe924;" d="M972 448c0-254.051-205.949-460-460-460s-460 205.949-460 460c0 254.051 205.949 460 460 460s460-205.949 460-460z" />
<glyph unicode="&#xe925;" d="M506.6 306h-16.8c-50.6 0-91.8 41.2-91.8 91.8v133.2c0 15.2 5.6 30.8 16.2 45.2 7.6 10.4 17.8 20.2 29.6 28.4 5.2 3.6 12.2 2.2 15.6-2.8 3.6-5.2 2.2-12.2-2.8-15.6-9.8-6.8-18.2-14.8-24.2-23.2-7.8-10.6-11.8-21.6-11.8-32v-133.2c0-38.2 31-69.2 69.2-69.2h16.8c23.8 0 45.8 12 58.6 32.2 3.4 5.2 10.2 6.8 15.6 3.4s6.8-10.2 3.4-15.6c-17-26.6-46-42.6-77.6-42.6z" />
<glyph unicode="&#xe926;" d="M592.8 424.4c-4.4 0-8.4 2.4-10.2 6.6l-116.8 263c-2.6 5.6 0 12.4 5.8 14.8 5.6 2.6 12.4 0 14.8-5.8l116.6-263c2.6-5.6 0-12.4-5.8-14.8-1.4-0.6-3-0.8-4.4-0.8z" />
<glyph unicode="&#xe927;" d="M599.2 420l-119.6 55.8c-5.6 2.6-8 9.4-5.4 15s9.4 8 15 5.4l96.8-45.2 29.8 86.8c2 5.8 8.4 9 14.2 7s9-8.4 7-14.2l-37.8-110.6z" />
<glyph unicode="&#xe928;" d="M668.8 186.2h-313.2c-58 0-105.2 47.2-105.2 105.2l-0.4 418.4h99c6.2 0 11.2-5 11.2-11.2s-5-11.2-11.2-11.2h-76.4l0.4-395.8c0-45.6 37-82.8 82.6-82.8h313.2c45.6 0 82.6 37 82.6 82.6v313.2c0 45.6-37 82.6-82.6 82.6h-192.8c-6.2 0-11.2 5-11.2 11.2s5 11.2 11.2 11.2h192.8c58 0 105.2-47.2 105.2-105.2v-313c0-58-47.2-105.2-105.2-105.2z" />
<glyph unicode="&#xe929;" d="M972 448c0-254.051-205.949-460-460-460s-460 205.949-460 460c0 254.051 205.949 460 460 460s460-205.949 460-460z" />
<glyph unicode="&#xe92a;" d="M638.2 180.8h-316.8c-27.6 0-50 22.4-50 50v442.6c0 27.6 22.4 50 50 50h266l-6.6-71.4 65.2-8v-232.8l-12.6 1.4c-47 5.2-91.6-19.8-111.2-62.6-5-10.4-8.2-21.6-9.6-33-5.4-47 19.6-91.6 62.2-111.4 2.4-1.2 4.6-2.2 7-3l56.4-21.8zM321.4 700.8c-15.2 0-27.4-12.4-27.4-27.4v-442.6c0-15.2 12.4-27.4 27.4-27.4h215.2c-33.4 27.8-51.4 71.2-46.4 116.2 1.6 14 5.4 27.4 11.6 40 21.8 47.6 70 77.2 121.6 76.2v188.4l-67.2 8.2 6.4 68.4h-241.2z" />
<glyph unicode="&#xe92b;" d="M538.8 511.6h-197.8c-6.2 0-11.2 5-11.2 11.2s5 11.2 11.2 11.2h197.8c6.2 0 11.2-5 11.2-11.2s-5-11.2-11.2-11.2z" />
<glyph unicode="&#xe92c;" d="M586.4 432.2h-245.2c-6.2 0-11.2 5-11.2 11.2s5 11.2 11.2 11.2h245.2c6.2 0 11.2-5 11.2-11.2s-5-11.2-11.2-11.2z" />
<glyph unicode="&#xe92d;" d="M463.8 344.8h-122.6c-6.2 0-11.2 5-11.2 11.2s5 11.2 11.2 11.2h122.6c6.2 0 11.2-5 11.2-11.2s-5-11.2-11.2-11.2z" />
<glyph unicode="&#xe92e;" d="M493.2 269.6h-152c-6.2 0-11.2 5-11.2 11.2s5 11.2 11.2 11.2h152c6.2 0 11.2-5 11.2-11.2s-5-11.2-11.2-11.2z" />
<glyph unicode="&#xe92f;" d="M621.6 172.6c-5.2 0-10.4 0.4-15.6 1-11.6 1.6-22.4 4.2-32.2 8-3 1.2-5.8 2.4-8.6 3.6-51 23.6-81.2 77.6-74.8 134.2 1.6 14 5.4 27.4 11.6 40 23.6 51.4 77.6 81.8 134.2 75.4 4-0.4 8-1 12-1.8 66.2-13.6 111.8-77 103.8-144.2-4-35-21.4-66.2-48.8-88-23.8-18.4-52.2-28.2-81.6-28.2zM621.4 413.4c-42.6 0-81.4-24.4-99.2-63.4-5-10.4-8.2-21.6-9.6-33-5.4-47 19.6-91.6 62.2-111.4 2.4-1.2 4.6-2.2 7-3 8-3.2 17-5.4 26.8-6.6 28.8-3.4 57.2 4.6 80 22.8 22.8 18 37.2 44 40.6 73v0c6.6 55.6-31 108.2-86 119.4-3 0.6-6 1.2-9.2 1.4-4.2 0.4-8.4 0.8-12.6 0.8z" />
<glyph unicode="&#xe930;" d="M395.4 565c-30.8 0-55.8 25-55.8 55.8s25 55.8 55.8 55.8 55.8-25 55.8-55.8-25-55.8-55.8-55.8zM395.4 654c-18.4 0-33.4-15-33.4-33.4s15-33.4 33.4-33.4c18.4 0 33.4 15 33.4 33.4s-15 33.4-33.4 33.4z" />
<glyph unicode="&#xe931;" d="M614.6 218.4l-69 64c-4.6 4.2-4.8 11.4-0.6 15.8 4.2 4.6 11.4 4.8 15.8 0.6l46.2-43 51.6 111.2c2.6 5.6 9.4 8 15 5.4s8-9.4 5.4-15l-64.4-139z" />
<glyph unicode="&#xe932;" d="M972 448c0-254.051-205.949-460-460-460s-460 205.949-460 460c0 254.051 205.949 460 460 460s460-205.949 460-460z" />
<glyph unicode="&#xe933;" d="M252.4 186.4c-1.2 0-2.4 0.2-3.6 0.6-5.8 2-9 8.4-7 14.2 11.4 33.4 60 67.8 144.4 101.8 13.8 5.6 6.8 31.6 6.6 31.8l-4.4 14.4h32.2l1.6 53.8c-18.8 8.8-30 36-32.4 42.2l0.4 0.2c-0.2 0.6-0.4 1.4-0.8 2h-0.2l-0.2 1.6c-2.2 7-5 18-9.2 35.2-2.4 9.4-4.6 21.6-2 31.2l-7 41.6 12.4-32c0.4 0.4 1 1 1.6 1.4 1.2 1 2.6 1.8 4 2.4-3 21-7.2 62.6-0.2 94 7.8 35.6 42 53 61.4 59.6-1 2.6-2 5.6-3 8l-4.4 10.8 11 4c45.2 16 86.6-19.2 100.2-30.6 1-1 2-1.6 2.6-2.2 11.8-4.6 39-23.6 52.4-56.2 11.2-27.4 9.2-72.6 7.4-94.6 4.8-1.2 7.8-3.8 9.8-5.8 14.4-15 4.2-51.2 0-63.6-3.4-25.2-11.6-42.6-24.2-52-3.8-2.8-7.4-4.4-10.8-5.6l-1.6-48.4h22.2l0.4-10.8c1.2-34.4 31.6-43.2 32.8-43.6 134-47.8 139.2-85.6 137.6-96-1-6.2-6.6-10.4-12.8-9.4-5.8 0.8-9.8 6-9.6 11.6-0.4 2.4-8.4 31.8-122 72.4-14.2 3.8-41.6 19.8-47.6 53.4h-24.4l3.2 94 12.6-2.2c5-0.2 17.6 7.4 21.8 40.6l0.6 2.2c5.8 17.2 8.4 37 5.6 41.6-0.2-0.2-1.2-0.2-3-0.8l-16.4-4.8 2.2 17c0 0.6 8.2 65.2-4.4 96.2-11.2 27.2-34.2 41.6-39.2 43.8-3.2 0.6-5.4 2.6-9.4 6-11 9.2-38.2 32.2-67 29.2 3.6-11.2 2.8-14.6 0.4-18.2l-3.4-5-6.2-0.2c0.8 0-45.2-10.8-52.8-45.4-8.4-38.6 2.4-97.8 2.4-98.4l4.2-22.8-18 9.4c0-3 0.4-8.2 2.4-16.8 6.4-26 8.4-33.6 9-35.8l0.2-0.4c5.4-14.2 16.4-30.4 23.2-30.6l11.2-0.4-2.8-95.4h-25.4c1.4-16.6-2.4-36.6-22-44.6-102.6-41.6-126.8-73.4-132-88.6-1.4-4.2-5.8-7-10.6-7z" />
<glyph unicode="&#xe934;" glyph-name="phone" d="M688.4 5.4h-357.8c-31.8 0-57.8 26-57.8 57.8v668.8c0 31.8 26 57.8 57.8 57.8h7.8v114.4c0 19.6 15.8 35.4 35.4 35.4h14.4c19.6 0 35.4-15.8 35.4-35.4v-114.6h265c31.8 0 57.8-26 57.8-57.8v-668.8c-0.2-31.6-26-57.6-58-57.6zM330.6 763.6c-17.4 0-31.6-14.2-31.6-31.6v-668.8c0-17.4 14.2-31.6 31.6-31.6h357.8c17.4 0 31.6 14.2 31.6 31.6v668.8c0 17.4-14.2 31.6-31.6 31.6h-291v140.6c0 5-4.2 9.2-9.2 9.2h-14.4c-5 0-9.4-4.2-9.4-9.2v-140.6h-33.8zM637.2 470.6h-255.2c-21.6 0-39.2 17.6-39.2 39.2v151.8c0 21.6 17.6 39.2 39.2 39.2h255.2c21.6 0 39.2-17.6 39.2-39.2v-151.8c-0.2-21.6-17.6-39.2-39.2-39.2zM382 674.6c-7.2 0-13-5.8-13-13v-151.8c0-7.2 5.8-13 13-13h255.2c7.2 0 13 5.8 13 13v151.8c0 7.2-5.8 13-13 13h-255.2zM432.8 346.8c0-19.33-15.67-35-35-35s-35 15.67-35 35c0 19.33 15.67 35 35 35s35-15.67 35-35zM544.6 346.8c0-19.33-15.67-35-35-35s-35 15.67-35 35c0 19.33 15.67 35 35 35s35-15.67 35-35zM646.084 371.606c13.668-13.668 13.668-35.829 0-49.497s-35.829-13.668-49.497 0c-13.668 13.668-13.668 35.829 0 49.497s35.829 13.668 49.497 0zM432.8 235c0-19.33-15.67-35-35-35s-35 15.67-35 35c0 19.33 15.67 35 35 35s35-15.67 35-35zM544.6 235c0-19.33-15.67-35-35-35s-35 15.67-35 35c0 19.33 15.67 35 35 35s35-15.67 35-35zM656.4 235c0-19.33-15.67-35-35-35s-35 15.67-35 35c0 19.33 15.67 35 35 35s35-15.67 35-35zM432.8 123.2c0-19.33-15.67-35-35-35s-35 15.67-35 35c0 19.33 15.67 35 35 35s35-15.67 35-35zM544.6 123.2c0-19.33-15.67-35-35-35s-35 15.67-35 35c0 19.33 15.67 35 35 35s35-15.67 35-35zM656.4 123.2c0-19.33-15.67-35-35-35s-35 15.67-35 35c0 19.33 15.67 35 35 35s35-15.67 35-35z" />
<glyph unicode="&#xe935;" glyph-name="other" d="M953.2 38.8l-236.8 211.8h-543.6c-46.6 0-84.6 38-84.6 84.6v456.4c0 46.6 38 84.6 84.6 84.6h695.8c46.6 0 84.6-38 84.6-84.6v-752.8zM172.8 840.2c-26.8 0-48.8-21.8-48.8-48.6v-456.4c0-26.8 21.8-48.8 48.8-48.8h557.2l187.4-167.6v672.8c0 26.8-21.8 48.8-48.8 48.8h-695.8zM298.6 492.2c-48.6 0-88.2 39.6-88.2 88.2s39.6 88.2 88.2 88.2c48.6 0 88.2-39.6 88.2-88.2s-39.6-88.2-88.2-88.2zM298.6 633c-29 0-52.4-23.6-52.4-52.4 0-29 23.6-52.4 52.4-52.4 29 0 52.4 23.6 52.4 52.4s-23.4 52.4-52.4 52.4zM520.8 492.2c-48.6 0-88.2 39.6-88.2 88.2s39.6 88.2 88.2 88.2 88.2-39.6 88.2-88.2-39.6-88.2-88.2-88.2zM520.8 633c-29 0-52.4-23.6-52.4-52.4 0-29 23.6-52.4 52.4-52.4 29 0 52.4 23.6 52.4 52.4s-23.6 52.4-52.4 52.4zM742.8 492.2c-48.6 0-88.2 39.6-88.2 88.2s39.6 88.2 88.2 88.2 88.2-39.6 88.2-88.2-39.4-88.2-88.2-88.2zM742.8 633c-29 0-52.4-23.6-52.4-52.4 0-29 23.6-52.4 52.4-52.4 29 0 52.4 23.6 52.4 52.4 0.2 28.8-23.4 52.4-52.4 52.4z" />
<glyph unicode="&#xe936;" glyph-name="business" d="M935.4-14.8c-0.6 0-1.2 0-1.8 0l-272.6 28.8c-9 1-15.8 8.6-15.8 17.6v447.6c0 69.4-56.4 126-126 126s-126-56.4-126-126v-447.6c0-9.8-8-17.8-17.8-17.8s-17.8 8-17.8 17.8v447.6c0 89 72.4 161.4 161.4 161.4s161.4-72.4 161.4-161.4v-431.8l228.2-24c-26.6 72.8-58.8 174-43.2 201.4 34.2 59.8 52.2 128 52.2 197.2 0 175.4-117.4 332.6-285.6 382.2-9.4 2.8-14.8 12.6-12 22s12.6 14.8 22 12c183-54 311-225 311-416.2 0-75.4-19.6-149.6-56.8-214.8-5.2-16.8 24.4-116.4 55.6-198.2 2.2-5.8 1.2-12.2-2.6-17.2-3.2-4-8.4-6.6-13.8-6.6zM375.6 13.8c-2 0-4.2 0.4-6.2 1-169.8 62.6-284 226.2-284 407.2 0 189.8 121.4 356 302 413.4 9.4 3 19.2-2.2 22.2-11.6s-2.2-19.2-11.6-22.2c-166-52.8-277.4-205.4-277.4-379.6 0-166.2 104.8-316.6 260.8-374 9.2-3.4 13.8-13.6 10.6-22.8-2.4-7-9.2-11.4-16.4-11.4zM519 615.8c-25.2 0-50.6 6.4-74 19.8-71 41-95.4 132-54.4 203s132 95.4 203 54.4c34.4-19.8 59-51.8 69.2-90.2s5-78.4-14.8-112.8v0c-27.6-47.6-77.6-74.2-129-74.2zM519.4 877.4c-39.2 0-77.2-20.2-98.2-56.6-31.2-54-12.6-123.4 41.4-154.6s123.4-12.6 154.6 41.4c15.2 26.2 19.2 56.6 11.2 85.8-7.8 29.2-26.6 53.6-52.8 68.6-17.6 10.4-37 15.4-56.2 15.4zM632.6 698.8v0z" />
<glyph unicode="&#xe937;" glyph-name="businessname" d="M362.8 682c-8.6 0-15.6 7-15.6 15.6v85.8c0 35 28.4 63.6 63.4 63.6h199.4c35 0 63.6-28.4 63.6-63.6v-82.8c0-8.6-7-15.6-15.6-15.6s-15.6 7-15.6 15.6v82.8c0 17.8-14.4 32.2-32.2 32.2h-199.4c-17.8 0-32.2-14.4-32.2-32.2v-85.8c-0.2-8.6-7.2-15.6-15.8-15.6zM895.2 81.8h-769.6c-52.2 0-94.6 42.4-94.6 94.6v439c0 52.2 42.4 94.6 94.6 94.6h769.6c52.2 0 94.6-42.4 94.6-94.6v-439c-0.2-52.2-42.6-94.6-94.6-94.6zM125.6 678.6c-35 0-63.2-28.4-63.2-63.2v-439c0-35 28.4-63.2 63.2-63.2h769.6c35 0 63.2 28.4 63.2 63.2v439c0 35-28.4 63.2-63.2 63.2h-769.6zM559.6 345.6h-98.6c-44 0-79.8 35.8-79.8 79.8s35.8 79.8 79.8 79.8h98.6c44 0 79.8-35.8 79.8-79.8s-35.8-79.8-79.8-79.8zM461 474c-26.8 0-48.6-21.8-48.6-48.6s21.8-48.6 48.6-48.6h98.6c26.8 0 48.6 21.8 48.6 48.6s-21.8 48.6-48.6 48.6h-98.6zM973.6 409.6h-344c-8.6 0-15.6 7-15.6 15.6s7 15.6 15.6 15.6h344c8.6 0 15.6-7 15.6-15.6s-7-15.6-15.6-15.6zM393 408.6h-344c-8.6 0-15.6 7-15.6 15.6s7 15.6 15.6 15.6h344c8.6 0 15.6-7 15.6-15.6s-7-15.6-15.6-15.6z" />
<glyph unicode="&#xe938;" glyph-name="location" d="M555.2-15.2l-201.6 298.8c-5.8 10.2-13.4 22.2-22.6 36.6-43.4 68-115.8 181.6-115.8 286.4 0 89.4 38.2 175 104.8 234.6 67.6 60.4 154.8 88.4 245.8 78.2 144.8-16 261.4-133 277.2-278.2 13.2-120-56-239.8-122.8-355.6-21.2-36.6-41.2-71.2-57.8-105-4-8.2-14-11.6-22.2-7.4-8.2 4-11.6 14-7.4 22.2 17.2 34.6 37.4 69.6 58.8 106.8 64.2 111.2 130.6 226.2 118.6 335.4-14.2 130-118.6 234.6-248 249-81.4 8.8-159.6-15.8-220-70-59.6-53.4-93.8-130-93.8-210 0-95 69.2-203.6 110.6-268.6 9.6-15 17.6-27.6 23-37.2l20.8-31.8 119.2-176.2v211.4l-75.4 104.4c-3 5-6.2 10-10 16-19 30-51 80-51 127.6 0 40.8 17.4 80 48 107.4 30.4 27.2 71.4 40.6 112.4 35.8 66.2-7.4 119.6-60.8 126.8-127.2 7.2-66.2-23.4-114.6-62-176l-14.2-22.6-41.6-62.4v-322.4zM529.8 663.2c-27.4 0-53.2-9.8-73.8-28.2-23.4-21-37-51.2-37-82.6 0-37.8 28.6-82.8 45.8-109.8 4.2-6.6 7.6-12 10-16.2l12-17.4 50.4-69 45.8 70c38 60.2 63 100 57 154.6-5.6 51.2-46.6 92.4-97.6 98-4.2 0.2-8.4 0.6-12.6 0.6z" />
<glyph unicode="&#xe939;" glyph-name="email" d="M891.8 32.4h-757.6c-47.2 0-85.4 38.4-85.4 85.4v549.2c0 50 19.4 71.8 35.8 81.2 22.6 13 48.2 8 59 1.6l378.8-220-18.6-32.2-378.8 220c-1.4 0.8-12.8 3.8-22.4-2.2-10.8-6.8-16.6-23.6-16.6-48.6v-549.2c0-26.6 21.6-48.2 48.2-48.2h757.6c26.6 0 48.2 21.6 48.2 48.2v549.4c0 26.2-5.4 44-15 48.8-8.4 4.2-22-0.4-31.2-7.2l-583.2-505.6c-7.8-6.6-19.6-5.8-26.2 1.8-6.8 7.8-5.8 19.4 1.8 26.2l584.2 506.4c18.2 13.6 46.8 23.8 71.2 11.6 23.6-11.8 35.6-39.4 35.6-82v-549.2c0-47-38.2-85.4-85.4-85.4zM728.6 651.6c-10.2 0-18.6 8.4-18.6 18.6 0 7-0.4 14-1.2 20.6-10.2 80.6-79.4 141.4-160.6 141.4-81.4 0-150.6-60.8-160.8-141.6-1.4-10.2-10.6-17.2-20.8-16.2-10.2 1.2-17.4 10.6-16.2 20.8 12.4 99.2 97.4 174 197.6 174 100 0 185-74.8 197.6-173.8 1-8.4 1.6-16.8 1.6-25.4 0-10-8.4-18.4-18.6-18.4z" />
<glyph unicode="&#xe93a;" glyph-name="name" d="M535 462c-130.2 0-236.2 106-236.2 236.2s106 236.2 236.2 236.2 236.2-106 236.2-236.2-106-236.2-236.2-236.2zM535 896c-109 0-197.8-88.8-197.8-197.8s88.8-197.8 197.8-197.8 197.8 88.8 197.8 197.8-88.8 197.8-197.8 197.8zM843.6-26c-9 0-17.2 6.4-18.8 15.8l-51.6 285.2c-9.4 58.8-41.2 110.4-89.6 145.4s-107.2 49-165.8 39.6c-58.4-9.4-110-41.2-145-89.6s-49-107.2-39.6-165.8l33.6-208.4c1.6-10.4-5.4-20.2-15.8-22-10.2-1.6-20.2 5.4-22 15.8l-33.6 208.4c-11 68.6 5.4 137.6 46.4 194.2s101.2 94 169.8 105c68.6 11 137.6-5.4 194.2-46.4s94-101.4 105-169.8l51.6-284.8c1.8-10.4-5-20.4-15.4-22.2-1.2-0.4-2.4-0.4-3.4-0.4zM699.2-26c-9.2 0-17.4 6.6-18.8 16l-39.4 240.4c-8.2 49.8-55.4 83.8-105.2 75.6s-83.6-55.2-75.6-105l33.6-204.6c1.6-10.4-5.4-20.2-15.8-22s-20.2 5.4-22 15.8l-33.6 204.6c-11.6 70.6 36.4 137.6 107.2 149 70.6 11.6 137.4-36.4 149-107.2l39.4-240.4c1.6-10.4-5.4-20.2-15.8-22-1-0.2-2-0.2-3-0.2z" />
<glyph unicode="&#xe93b;" glyph-name="userid" d="M295.8-5c-4.6 0-9.2 2-12.6 5.6-53.8 60-83.4 136.6-83.4 216v36.8c0 9.4 7.6 17 17 17s17-7.6 17-17v-36.8c0-71 26.6-139.6 74.8-193.2 6.2-7 5.8-17.8-1.2-24-3.4-3-7.6-4.4-11.6-4.4zM216.6 322.8c-9.4 0-17 7.6-17 17v235.6c0 178.8 145.6 324.4 324.4 324.4 74.8 0 148-26.4 206-74.4 7.2-6 8.2-16.6 2.2-24-6-7.2-16.8-8.2-24-2.2-52 42.8-117.4 66.6-184.4 66.6-160.2 0-290.4-130.2-290.4-290.4v-235.6c0.2-9.4-7.4-17-16.8-17zM796.6 58.2c-2.6 0-5.4 0.6-8 2-8.4 4.4-11.4 14.6-7.2 23 21.8 41.6 33 86.6 33 133.6v358.6c0 42.2-9 83-26.6 121.2-4 8.6-0.2 18.6 8.2 22.6 8.6 4 18.6 0.2 22.6-8.2 19.8-42.6 29.8-88.2 29.8-135.4v-358.8c0-51.8-12.8-103.6-37-149.4-2.8-6-8.8-9.2-14.8-9.2zM465 6.6c-2 0-3.8 0.4-5.8 1-82.2 29.6-137.6 107.8-137.6 194.6v378.6c0 9.4 7.6 17 17 17s17-7.6 17-17v-378.8c0-72.6 46.2-137.8 115-162.6 8.8-3.2 13.4-13 10.2-21.8-2.2-6.8-8.8-11-15.8-11zM718.4 390.8c-9.4 0-17 7.6-17 17v173c0 95.4-77.6 172.8-172.8 172.8-46 0-89.2-18-122-50.8-6.6-6.6-17.4-6.6-24 0s-6.6 17.4 0 24c39.2 39.2 91 60.8 146 60.8 114 0 206.8-92.8 206.8-206.8v-173c0-9.4-7.6-17-17-17zM576.8 1.8c-7.6 0-14.4 5-16.4 12.6-2.4 9 3 18.4 12 20.8 76 20 129 88.8 129 167v130.6c0 9.4 7.6 17 17 17s17-7.6 17-17v-130.6c0-93.6-63.4-175.8-154.2-199.8-1.4-0.4-3-0.6-4.4-0.6zM510.6 103.8c-2.2 0-4.2 0.4-6.4 1.2-36.2 14.4-59.6 48.8-59.6 87.6v191.6c0 9.4 7.6 17 17 17s17-7.6 17-17v-191.6c0-24.8 15-46.8 38.4-56 8.8-3.4 13-13.4 9.4-22-2.6-6.6-9-10.8-15.8-10.8zM616.4 175.8c-9.4 0-17 7.6-17 17v393.8c0 33.4-27.2 60.4-60.4 60.4-33.4 0-60.4-27.2-60.4-60.4v-144.8c0-9.4-7.6-17-17-17s-17 7.6-17 17v144.8c0 52 42.4 94.4 94.4 94.4s94.4-42.4 94.4-94.4v-393.8c0-9.4-7.6-17-17-17zM539 214.2c-9.4 0-17 7.6-17 16.8-3 361.8-3 361.8 8.8 368.2 8.2 4.6 18.6 1.6 23.2-6.6 2.2-3.8 2.6-8 1.8-12-1.6-20-0.6-218.6 0.4-349.4-0.2-9.2-7.6-16.8-17.2-17 0.2 0 0 0 0 0z" />
</font>
</defs>
</svg>
